<svg width="60" height="60" viewBox="0 0 60 60" fill="none" xmlns="http://www.w3.org/2000/svg">
<g clip-path="url(#clip0_4_33)">
<path d="M30 58.2857C45.6217 58.2857 58.2857 45.6218 58.2857 30C58.2857 14.3782 45.6217 1.71429 30 1.71429C14.3782 1.71429 1.71423 14.3782 1.71423 30C1.71423 45.6218 14.3782 58.2857 30 58.2857Z" stroke="#8FA5FF" stroke-width="4"/>
<path d="M19.4516 40.56C17.4402 40.56 15.6939 40.176 14.2128 39.408C12.7499 38.6218 11.6162 37.5246 10.8116 36.1166C10.0254 34.6903 9.6322 33.0171 9.6322 31.0971C9.6322 29.1771 10.0254 27.5132 10.8116 26.1051C11.6162 24.6789 12.7499 23.5817 14.2128 22.8137C15.6939 22.0275 17.4402 21.6343 19.4516 21.6343C21.3716 21.6343 23.0265 21.936 24.4162 22.5394C25.8242 23.1429 26.9122 24.0023 27.6802 25.1177C28.4482 26.2331 28.8322 27.5771 28.8322 29.1497V29.5611H24.2516V29.1497C24.2516 27.9429 23.8768 27.0469 23.1271 26.4617C22.3957 25.8765 21.1979 25.584 19.5339 25.584C18.1991 25.584 17.1202 25.7668 16.2973 26.1326C15.4927 26.48 14.9077 27.056 14.5419 27.8606C14.1762 28.6468 13.9933 29.7257 13.9933 31.0971C13.9933 32.4503 14.1762 33.5291 14.5419 34.3337C14.9077 35.1383 15.4927 35.7234 16.2973 36.0892C17.1202 36.4366 18.1991 36.6103 19.5339 36.6103C21.1979 36.6103 22.3957 36.3177 23.1271 35.7326C23.8768 35.1474 24.2516 34.2514 24.2516 33.0446V32.6331H28.8322V33.0446C28.8322 34.5988 28.4482 35.9428 27.6802 37.0766C26.9122 38.192 25.8242 39.0514 24.4162 39.6549C23.0265 40.2583 21.3716 40.56 19.4516 40.56ZM42.7933 40.2857H36.9236L29.2985 21.9086H34.2631L39.7762 36.1166H40.0505L45.4813 21.9086H50.4185L42.7933 40.2857Z" fill="#8FA5FF"/>
</g>
<defs>
<clipPath id="clip0_4_33">
<rect width="60" height="60" fill="white"/>
</clipPath>
</defs>
</svg>
