<svg width="60" height="64" viewBox="0 0 60 64" fill="none" xmlns="http://www.w3.org/2000/svg">
<g clip-path="url(#clip0_4_28)">
<path d="M21.6806 55.0187C7.37138 59.7057 7.37138 46.6492 1.71423 44.9754M41.647 61.7143V49.9971C41.647 46.6492 41.9798 45.3101 39.9832 43.3015C49.3008 42.2972 58.2857 38.6146 58.2857 23.2148C58.2816 19.2141 56.7301 15.372 53.9596 12.5019C55.259 9.02674 55.1394 5.17569 53.6268 1.78898C53.6268 1.78898 49.9663 0.78465 41.9798 6.1411C35.2153 4.36874 28.1124 4.36874 21.3479 6.1411C13.3613 0.78465 9.70075 1.78898 9.70075 1.78898C8.18827 5.17569 8.06865 9.02674 9.36801 12.5019C6.59752 15.372 5.04602 19.2141 5.04196 23.2148C5.04196 38.6146 14.0268 42.2972 23.3445 43.3015C21.3479 45.3101 21.3479 47.3188 21.6806 49.9971V61.7143" stroke="#8FA5FF" stroke-width="4" stroke-linecap="round" stroke-linejoin="round"/>
</g>
<defs>
<clipPath id="clip0_4_28">
<rect width="60" height="63.4286" fill="white"/>
</clipPath>
</defs>
</svg>