<svg width="60" height="60" viewBox="0 0 60 60" fill="none" xmlns="http://www.w3.org/2000/svg">
<g clip-path="url(#clip0_4_30)">
<path d="M47.1428 1.71429H12.8571C6.70306 1.71429 1.71423 6.70311 1.71423 12.8571V47.1429C1.71423 53.2969 6.70306 58.2857 12.8571 58.2857H47.1428C53.2968 58.2857 58.2857 53.2969 58.2857 47.1429V12.8571C58.2857 6.70311 53.2968 1.71429 47.1428 1.71429Z" stroke="#8FA5FF" stroke-width="4"/>
<path d="M19.1538 40.7143H14.011V17.7429H19.1538V40.7143ZM46.1303 40.7143H40.9874V31.7314C40.9874 30.3371 40.6675 29.3428 40.0274 28.7486C39.3874 28.1314 38.2789 27.8229 36.7017 27.8229C35.056 27.8229 33.9017 28.1657 33.2388 28.8514C32.5988 29.5143 32.2789 30.5771 32.2789 32.04H31.6274L31.2503 28.8171H32.2103C32.3703 27.8571 32.7132 26.9543 33.2388 26.1086C33.7645 25.24 34.5074 24.5428 35.4674 24.0171C36.4503 23.4686 37.696 23.1943 39.2046 23.1943C40.7588 23.1943 42.0503 23.5029 43.0789 24.12C44.1074 24.7143 44.8731 25.5257 45.376 26.5543C45.8789 27.5829 46.1303 28.7372 46.1303 30.0171V40.7143ZM32.2789 40.7143H27.136V23.5371H31.9017V28.8857L32.2789 29.0571V40.7143Z" fill="#8FA5FF"/>
</g>
<defs>
<clipPath id="clip0_4_30">
<rect width="60" height="60" fill="white"/>
</clipPath>
</defs>
</svg>
